PathFileType   4   (X/Y/Z)
DataRate	CameraRate	NumFrames	NumMarkers	Units	OrigDataRate	OrigDataStartFrame	OrigNumFrames
120.0	120.0	12	37	mm	120.0	1	110
Frame#	Time	midhip	hip_r	hip_l	knee_r	knee_l	ankle_r	ankle_l	midasis	asis_r	asis_l	psis_r	psis_l	epicondLat_r	epicondLat_l	epicondMed_r	epicondMed_l	malleolusLat_r	malleolusLat_l	malleolusMedv_r	malleolusMedv_l	neck	subclavicle_r	subclavicle_l	sternalnotch	xyphoidprocess	thighwand_r	thighwand_l	upperleg1_r	upperleg1_l	upperleg2_r	upperleg2_l	shankwand_r	shankwand_l	lowerleg1_r	lowerleg1_l	toe_r	toe_l
 	 	X1	Y1	Z1	X2	Y2	Z2	X3	Y3	Z3	X4	Y4	Z4	X5	Y5	Z5	X6	Y6	Z6	X7	Y7	Z7	X8	Y8	Z8	X9	Y9	Z9	X10	Y10	Z10	X11	Y11	Z11	X12	Y12	Z12	X13	Y13	Z13	X14	Y14	Z14	X15	Y15	Z15	X16	Y16	Z16	X17	Y17	Z17	X18	Y18	Z18	X19	Y19	Z19	X20	Y20	Z20	X21	Y21	Z21	X22	Y22	Z22	X23	Y23	Z23	X24	Y24	Z24	X25	Y25	Z25	X26	Y26	Z26	X27	Y27	Z27	X28	Y28	Z28	X29	Y29	Z29	X30	Y30	Z30	X31	Y31	Z31	X32	Y32	Z32	X33	Y33	Z33	X34	Y34	Z34	X35	Y35	Z35	X36	Y36	Z36	X37	Y37	Z37

	1	0.13333	-16.419	809.604	-228.680	-3.671	796.082	-167.984	-25.668	787.498	-283.059	148.613	452.997	-183.862	-50.729	421.336	-338.205	142.648	62.782	-189.188	-376.196	182.200	-329.706	41.057	874.073	-236.229	51.426	879.888	-137.577	30.689	868.257	-334.881	-115.263	897.496	-192.305	-121.241	895.656	-246.907	163.620	457.217	-131.118	-52.563	429.571	-392.048	138.919	445.656	-226.894	-43.458	401.218	-293.654	139.189	62.311	-150.847	-377.859	183.098	-368.159	164.279	73.894	-219.408	-354.996	179.614	-306.831	-48.573	1313.077	-211.546	47.783	1230.096	-168.013	41.492	1233.946	-276.065	30.266	1244.696	-226.079	70.193	1073.629	-233.312	205.949	670.481	-194.828	100.672	577.782	-326.381	129.527	682.642	-130.627	23.564	628.783	-367.437	157.743	601.874	-134.981	18.559	541.430	-373.351	147.621	179.209	-80.051	-310.462	288.653	-430.724	147.383	186.457	-122.200	-297.125	280.284	-391.865	258.147	40.270	-153.098	-344.552	63.341	-330.726
	2	0.14167	-6.719	810.868	-227.443	6.366	797.681	-166.733	-15.773	788.831	-281.760	154.480	453.133	-183.309	-31.304	421.830	-338.017	143.282	62.918	-189.305	-360.360	189.225	-332.484	50.950	875.555	-235.204	61.449	881.595	-136.514	40.451	869.514	-333.895	-105.333	899.057	-191.284	-111.468	896.891	-245.874	169.367	456.992	-130.503	-33.018	430.155	-391.850	145.128	446.272	-226.722	-24.934	401.895	-292.400	139.278	62.444	-151.016	-361.020	189.243	-370.978	164.448	73.868	-219.516	-339.303	185.405	-309.269	-38.030	1314.659	-210.831	58.286	1231.465	-167.539	51.681	1235.447	-275.576	40.606	1246.139	-225.583	80.210	1075.029	-233.081	214.745	670.051	-193.379	115.948	581.127	-325.016	138.009	682.937	-129.547	38.040	630.530	-366.365	165.254	601.908	-134.053	34.656	543.140	-372.166	148.303	179.227	-80.208	-290.598	291.559	-433.764	147.758	186.755	-122.510	-277.710	283.294	-395.097	258.133	40.267	-153.213	-330.680	68.481	-335.098
	3	0.15000	2.787	812.286	-226.255	16.159	799.434	-165.530	-6.064	790.340	-280.521	159.620	453.223	-182.731	-11.981	422.741	-337.469	143.621	63.028	-189.344	-343.977	195.940	-335.197	60.643	877.197	-234.191	71.222	883.447	-135.447	50.063	870.947	-332.935	-95.614	900.783	-190.383	-101.847	898.300	-244.974	174.555	456.788	-129.918	-13.315	431.103	-391.307	150.841	446.737	-226.362	-6.788	403.224	-290.306	139.284	62.557	-151.092	-343.617	195.028	-373.684	164.542	73.894	-219.526	-322.746	190.645	-311.776	-27.584	1316.337	-210.135	68.674	1233.062	-167.203	61.692	1237.115	-275.244	50.832	1247.734	-225.206	90.142	1076.632	-232.923	222.895	669.568	-192.422	131.036	584.847	-322.772	146.027	683.390	-129.067	52.674	632.569	-364.819	172.364	602.104	-133.522	50.903	545.211	-370.239	149.154	179.204	-80.216	-270.298	294.237	-436.575	148.389	186.942	-122.559	-257.950	286.267	-398.024	258.025	40.288	-153.297	-314.891	73.611	-340.301
	4	0.15833	12.156	813.863	-225.055	25.729	801.333	-164.357	3.490	792.012	-279.327	164.110	453.299	-182.118	7.133	424.067	-336.647	143.636	63.125	-189.323	-326.952	202.009	-337.840	70.169	878.984	-233.174	80.771	885.431	-134.369	59.568	872.537	-331.979	-86.076	902.667	-189.603	-92.340	899.887	-244.199	179.251	456.627	-129.348	6.427	432.448	-390.494	155.802	447.247	-225.923	11.399	404.838	-288.011	139.223	62.651	-151.080	-325.662	200.275	-376.279	164.551	73.938	-219.482	-305.255	195.178	-314.283	-17.269	1318.166	-209.522	78.919	1234.791	-167.047	71.562	1238.892	-275.183	60.942	1249.463	-224.944	99.900	1078.348	-232.948	230.446	669.034	-191.908	145.891	588.916	-319.736	153.635	683.978	-128.791	67.460	634.914	-362.761	179.074	602.466	-133.210	67.486	547.611	-367.770	150.303	179.114	-80.067	-249.819	296.861	-439.008	149.729	186.933	-122.320	-238.075	289.317	-400.386	257.840	40.326	-153.346	-297.229	78.534	-346.191
	5	0.16667	21.470	815.674	-223.854	35.104	803.360	-163.209	12.917	793.825	-278.171	168.050	453.381	-181.465	25.972	425.786	-335.635	143.357	63.220	-189.253	-309.191	207.125	-340.396	79.561	880.893	-232.148	90.125	887.526	-133.282	68.996	874.259	-331.014	-76.689	904.691	-188.926	-82.916	901.637	-243.535	183.511	456.506	-128.776	26.098	434.198	-389.482	159.960	447.666	-225.303	29.960	406.575	-285.559	139.103	62.726	-150.992	-307.140	204.818	-378.772	164.449	73.992	-219.388	-286.952	198.851	-316.720	-7.119	1320.133	-209.056	89.070	1236.598	-166.969	81.352	1240.828	-275.189	70.939	1251.301	-224.794	109.608	1080.198	-233.160	237.474	668.433	-191.710	160.486	593.299	-316.073	160.885	684.556	-128.599	82.325	637.560	-360.187	185.370	602.801	-132.973	84.417	550.260	-364.808	151.732	178.948	-79.775	-229.368	299.555	-440.956	151.638	186.822	-121.785	-218.272	292.494	-402.105	257.590	40.374	-153.357	-277.803	83.090	-352.570
	6	0.17500	30.787	817.734	-222.670	44.314	805.484	-162.089	22.242	795.752	-277.058	171.528	453.476	-180.753	44.513	427.866	-334.509	142.861	63.317	-189.140	-290.634	211.052	-342.846	88.844	882.895	-231.117	99.316	889.702	-132.198	78.372	876.089	-330.037	-67.427	906.824	-188.329	-73.554	903.529	-242.956	187.368	456.413	-128.166	45.608	436.338	-388.335	163.607	447.776	-224.248	48.230	408.700	-283.282	138.920	62.784	-150.845	-288.038	208.513	-381.175	164.238	74.060	-219.242	-267.916	201.475	-319.095	2.988	1322.186	-208.718	99.141	1238.469	-166.901	91.084	1242.813	-275.118	80.838	1253.211	-224.741	119.196	1082.094	-233.312	244.079	667.751	-191.658	174.822	597.959	-312.006	167.827	685.079	-128.594	97.156	640.636	-357.488	191.320	602.971	-132.724	101.357	553.262	-361.722	153.300	178.722	-79.368	-209.079	302.363	-442.374	153.642	186.671	-121.105	-198.609	295.688	-403.262	257.280	40.430	-153.323	-256.768	87.158	-359.229
	7	0.18333	40.056	819.926	-221.517	53.385	807.667	-161.012	31.488	797.760	-275.999	174.635	453.586	-179.973	62.771	430.264	-333.323	142.257	63.414	-188.988	-271.264	213.652	-345.184	98.040	884.960	-230.092	108.364	891.921	-131.132	87.716	877.998	-329.051	-58.267	909.026	-187.793	-64.244	905.528	-242.443	190.845	456.326	-127.488	64.888	438.833	-387.104	166.803	447.941	-223.406	65.868	411.049	-281.680	138.669	62.826	-150.660	-268.350	211.257	-383.499	163.885	74.178	-219.067	-248.147	202.941	-321.478	13.075	1324.321	-208.430	109.147	1240.432	-167.019	100.657	1244.780	-275.196	90.654	1255.161	-224.760	128.561	1084.002	-233.485	250.372	666.973	-191.573	188.922	602.856	-307.781	174.580	685.545	-128.613	111.748	643.969	-354.751	196.993	603.030	-132.564	117.934	556.699	-358.802	154.792	178.468	-78.883	-189.010	305.240	-443.277	155.424	186.485	-120.411	-178.925	298.626	-403.918	256.915	40.492	-153.231	-234.312	90.655	-365.969
	8	0.19167	49.190	822.074	-220.390	62.314	809.865	-159.995	40.671	799.812	-275.018	177.460	453.705	-179.121	80.786	432.931	-332.114	141.666	63.502	-188.805	-251.091	214.871	-347.412	107.152	887.049	-229.080	117.258	894.140	-130.098	97.046	879.957	-328.061	-49.192	911.250	-187.307	-54.978	907.589	-241.985	193.964	456.226	-126.716	83.898	441.630	-385.825	169.511	448.410	-223.175	83.161	413.351	-280.582	138.348	62.855	-150.454	-248.081	212.979	-385.748	163.447	74.336	-218.857	-227.690	203.268	-323.914	23.057	1326.512	-208.172	119.110	1242.411	-167.279	110.065	1246.766	-275.426	100.409	1257.114	-224.824	137.789	1085.925	-233.830	256.464	666.084	-191.281	202.826	607.943	-303.632	181.153	685.974	-128.449	125.883	647.283	-352.026	202.363	602.953	-132.474	133.979	560.361	-356.110	155.980	178.227	-78.361	-169.175	308.064	-443.718	156.749	186.326	-119.744	-159.025	301.128	-404.151	256.500	40.559	-153.068	-210.624	93.532	-372.623
	9	0.20000	58.243	824.184	-219.321	71.099	812.035	-159.054	49.804	801.866	-274.131	180.085	453.828	-178.204	98.603	435.814	-330.898	141.188	63.571	-188.602	-230.138	214.722	-349.537	116.181	889.125	-228.083	125.985	896.318	-129.100	106.378	881.932	-327.067	-40.190	913.449	-186.873	-45.754	909.665	-241.586	196.748	456.099	-125.838	102.614	444.666	-384.525	172.169	448.644	-222.064	99.998	415.993	-279.677	137.962	62.870	-150.244	-227.236	213.642	-387.912	163.078	74.484	-218.581	-206.555	202.527	-326.380	32.946	1328.657	-207.963	128.993	1244.410	-167.481	119.454	1248.656	-275.629	110.123	1259.036	-224.918	147.028	1087.805	-233.949	262.448	665.071	-190.641	216.578	613.169	-299.751	187.445	686.297	-127.965	139.842	650.849	-349.612	207.447	602.871	-131.814	149.658	564.183	-353.722	156.687	178.036	-77.833	-149.553	310.662	-443.775	157.403	186.269	-119.142	-138.941	303.089	-404.164	256.043	40.630	-152.821	-185.869	95.766	-379.049
	10	0.20833	67.328	826.338	-218.357	79.731	814.135	-158.197	58.899	803.885	-273.352	182.580	453.951	-177.236	116.258	438.863	-329.682	140.886	63.610	-188.390	-208.434	213.275	-351.559	125.127	891.151	-227.104	134.528	898.414	-128.134	115.727	883.887	-326.074	-31.248	915.582	-186.506	-36.564	911.707	-241.259	199.222	455.935	-124.852	121.030	447.875	-383.220	174.563	448.489	-219.437	117.075	419.003	-278.746	137.521	62.873	-150.044	-205.818	213.235	-389.970	162.797	74.634	-218.255	-184.875	200.864	-328.788	42.754	1330.702	-207.779	138.842	1246.459	-167.619	128.903	1250.438	-275.753	119.812	1260.895	-225.030	156.455	1089.664	-233.756	268.400	663.920	-189.552	230.222	618.481	-296.262	193.618	686.444	-127.054	153.828	654.686	-347.572	212.248	602.881	-130.287	165.388	568.239	-351.581	156.835	177.914	-77.319	-130.098	312.837	-443.529	157.395	186.315	-118.587	-118.725	304.437	-404.101	255.551	40.704	-152.486	-160.180	97.356	-385.136
	11	0.21667	76.366	828.393	-217.491	88.212	816.128	-157.429	67.966	805.832	-272.684	185.004	454.071	-176.241	133.772	442.027	-328.466	140.769	63.616	-188.175	-186.011	210.645	-353.470	133.995	893.091	-226.139	142.885	900.392	-127.192	125.104	885.789	-325.085	-22.356	917.615	-186.228	-27.402	913.668	-241.022	201.422	455.734	-123.775	139.145	451.195	-381.920	176.523	448.717	-217.499	134.903	422.107	-277.591	137.042	62.867	-149.863	-183.825	211.775	-391.891	162.572	74.796	-217.930	-162.581	198.279	-331.146	52.549	1332.666	-207.625	148.763	1248.390	-167.819	138.358	1252.113	-275.789	129.491	1262.660	-225.122	165.932	1091.415	-233.590	274.363	662.624	-187.967	243.784	623.820	-293.229	199.733	686.452	-125.673	167.595	658.461	-345.907	216.780	602.683	-128.621	181.139	572.448	-349.645	156.460	177.861	-76.831	-110.726	314.390	-443.067	156.896	186.415	-118.079	-98.467	305.158	-403.977	255.038	40.781	-152.067	-133.648	98.312	-390.789
	12	0.22500	85.278	830.202	-216.697	96.548	817.981	-156.748	77.012	807.675	-272.125	187.405	454.184	-175.240	151.148	445.260	-327.250	140.805	63.593	-187.964	-162.899	206.972	-355.249	142.790	894.912	-225.186	151.064	902.221	-126.266	134.516	887.604	-324.106	-13.504	919.520	-186.064	-18.259	915.511	-240.891	203.394	455.503	-122.632	156.965	454.570	-380.633	178.893	449.246	-216.774	152.463	425.247	-276.673	136.546	62.854	-149.708	-161.241	209.298	-393.643	162.395	74.970	-217.619	-139.434	194.823	-333.408	62.321	1334.520	-207.443	158.695	1250.143	-168.114	147.864	1253.657	-275.765	139.178	1264.309	-225.166	175.442	1093.019	-233.510	280.354	661.175	-185.898	257.252	629.124	-290.651	205.640	686.272	-124.053	180.974	662.177	-344.518	221.183	602.191	-127.100	196.371	576.684	-348.088	155.706	177.854	-76.372	-91.329	315.138	-442.471	156.028	186.568	-117.642	-78.339	305.149	-403.777	254.522	40.857	-151.581	-106.339	98.652	-395.925
